<?xml version="1.0" encoding="UTF-8"?>
<svg id="Layer_2" data-name="Layer 2" xmlns="http://www.w3.org/2000/svg" viewBox="0 0 605.98 489.97">
  <defs>
    <style>
      .cls-1 {
        fill: #fff;
        stroke: #fff;
        stroke-miterlimit: 10;
        stroke-width: 8px;
      }
    </style>
  </defs>
  <g id="Layer_2-2" data-name="Layer 2">
    <g>
      <path class="cls-1" d="M230.86,4h5.79l78.77,224.87,52.52-145.19c4.76-13.1,7.14-24.09,7.14-32.97,0-20.99-14.8-34.38-44.41-40.16V4h102.72v6.34c-8.37,3.24-16,8.03-22.88,14.37-6.89,6.34-13.16,14.55-18.83,24.62-5.67,10.08-11.26,22.51-16.8,37.3l-77.23,212.83h-5.21L214.64,75.22l-74.14,224.24h-5.02L52.08,69.52c-5.15-14.09-9.88-24.97-14.19-32.65-4.31-7.68-9.07-13.49-14.29-17.44-5.21-3.94-11.75-6.9-19.6-8.88V4h125.11v6.55c-11.07,.71-18.99,1.98-23.75,3.8-9.4,3.38-14.09,10.01-14.09,19.87,0,6.06,1.61,13.74,4.83,23.04l60.43,172.67L230.86,4Zm-83.22,252.14L78.91,60.22c-3.73-11.13-5.6-19.51-5.6-25.15,0-4.51,1.03-8.45,3.09-11.84,2.06-3.38,5.66-7.11,10.81-11.2H26.59c4.76,4.23,8.85,8.67,12.26,13.31,3.41,4.65,6.63,10.14,9.65,16.48,3.02,6.34,6.47,14.79,10.33,25.36l79.16,218.95,9.65-30.01ZM229.13,32.32l-10.43,31.91,77.23,221.7,10.62-30.01L229.13,32.32ZM357.91,12.03c8.11,4.37,13.87,8.98,17.28,13.84,3.41,4.86,5.63,11.45,6.66,19.76,6.43-13.81,14.67-25.01,24.71-33.6h-48.66Z"/>
      <path class="cls-1" d="M335.26,482.1v-6.66c14.93-2.58,25.85-8.52,32.76-17.84,5.21-7.02,7.82-20.7,7.82-41.05V254.27c0-12.18-.71-21.39-2.11-27.62-1.41-6.23-4.02-11.5-7.82-15.8-6.76-8.02-16.98-13.18-30.65-15.48v-6.66l3.38,.21,25.36,1.72c9.01,.57,17.89,.86,26.63,.86,7.32,0,15.99-.32,26-.97,10-.65,17.61-1.25,22.83-1.83l21.35-2.36c7.61-.86,15.5-1.29,23.67-1.29,14.51,0,27.65,1.72,39.42,5.16,11.76,3.44,21.8,8.35,30.12,14.72,8.31,6.38,14.72,14.04,19.23,23,4.51,8.96,6.76,18.88,6.76,29.77,0,16.91-5.25,31.09-15.75,42.56-10.5,11.46-25.75,19.77-45.76,24.93,16.62,1.72,31.28,6.23,43.96,13.54,12.68,7.31,22.44,16.87,29.27,28.69,6.83,11.82,10.25,25.11,10.25,39.87,0,12.04-2.26,22.82-6.76,32.35-4.51,9.53-11.2,17.84-20.08,24.93-8.88,7.09-19.59,12.43-32.12,16.01-12.54,3.58-26.28,5.37-41.21,5.37-7.75,0-18.95-.65-33.6-1.93-21.42-1.72-36.07-2.79-43.96-3.22-12.82-.71-24.52-1.07-35.08-1.07-8.32,0-17.61,.29-27.9,.86l-21.77,1.29-4.23,.21Zm29.8-11.39c11.13-1.43,20.43-2.15,27.9-2.15,6.76,0,15.57,.57,26.42,1.72l5.07,.43-7.4-5.8c-4.79-3.58-7.86-6.45-9.19-8.6-1.34-2.15-2.01-5.37-2.01-9.67v-7.09c0-1.29-.04-2.15-.11-2.58-.07-.43-.11-.79-.11-1.08V234.93c0-.43,.03-.86,.11-1.29,.07-.43,.11-1.22,.11-2.36v-7.09c0-3.01,.24-5.37,.74-7.09,.49-1.72,1.44-3.33,2.85-4.84,1.41-1.5,3.94-3.62,7.61-6.34l11.2-8.6-7.61,.65c-10.85,1-20.36,1.5-28.53,1.5-9.3,0-19.58-.79-30.86-2.36l11.2,8.81c4.93,3.73,8.03,6.63,9.3,8.7,1.27,2.08,1.9,5.27,1.9,9.56v222.45c0,4.3-.63,7.49-1.9,9.56-1.27,2.08-4.37,4.98-9.3,8.71l-7.4,5.8Zm59.18-147.01h34.24c20.29,0,35.79-4.15,46.5-12.47,7.32-5.44,13.17-12.86,17.54-22.25,4.37-9.38,6.55-19.24,6.55-29.55,0-12.47-2.61-23.64-7.82-33.53-5.21-9.89-12.47-17.62-21.77-23.21s-19.73-8.38-31.28-8.38c-9.16,0-17.05,1.72-23.67,5.16-6.62,3.44-11.77,8.38-15.43,14.83-3.24,6.45-4.86,16.69-4.86,30.73v78.67Zm0,8.38v90.49c0,18.63,4.19,31.78,12.58,39.44,8.38,7.67,22.65,11.5,42.8,11.5,22.96,0,40.44-6.66,52.41-19.99,11.84-13.18,17.75-29.59,17.75-49.22,0-8.31-1.02-16.01-3.06-23.11-2.04-7.09-5.07-13.57-9.09-19.45-4.02-5.88-8.84-10.93-14.48-15.15-5.64-4.22-12.05-7.42-19.23-9.56-9.72-3.29-24.24-4.94-43.54-4.94h-36.14Zm81.16-12.47c17.33-5.16,30.68-13.18,40.05-24.07,9.37-10.89,14.05-23.93,14.05-39.12s-4.72-28.19-14.16-38.58c-9.44-10.39-23.39-17.87-41.85-22.46,22.4,16.05,33.6,37.04,33.6,62.98,0,27.51-10.57,47.93-31.7,61.26Zm9.72,154.75c13.24-2.15,24.87-6.27,34.87-12.36,10-6.09,17.72-13.79,23.14-23.11,5.42-9.31,8.14-19.63,8.14-30.95,0-16.19-5.28-30.59-15.85-43.2-10.57-12.61-25.36-22.14-44.38-28.59,24.52,16.19,36.77,38.98,36.77,68.35,0,33.53-14.23,56.82-42.69,69.85Z"/>
    </g>
  </g>
</svg>